<?xml version="1.0" standalone="no"?><!DOCTYPE svg PUBLIC "-//W3C//DTD SVG 1.1//EN" "http://www.w3.org/Graphics/SVG/1.1/DTD/svg11.dtd"><svg t="1642148196752" class="icon" viewBox="0 0 1024 1024" version="1.1" xmlns="http://www.w3.org/2000/svg" p-id="21086" xmlns:xlink="http://www.w3.org/1999/xlink" width="500" height="500"><defs><style type="text/css"></style></defs><path d="M407.478857 73.142857a73.142857 73.142857 0 0 1 73.142857 73.142857v731.428572a73.142857 73.142857 0 0 1-73.142857 73.142857H146.285714a73.142857 73.142857 0 0 1-73.142857-73.142857V146.285714a73.142857 73.142857 0 0 1 73.142857-73.142857h261.193143zM877.714286 73.142857a73.142857 73.142857 0 0 1 73.142857 73.142857v731.428572a73.142857 73.142857 0 0 1-73.142857 73.142857H616.521143a73.142857 73.142857 0 0 1-73.142857-73.142857V146.285714a73.142857 73.142857 0 0 1 73.142857-73.142857H877.714286zM276.918857 610.523429a33.792 33.792 0 0 0-34.011428 33.645714c0 18.505143 15.213714 33.499429 34.011428 33.499428a33.792 33.792 0 0 0 33.938286-33.572571 33.792 33.792 0 0 0-33.938286-33.645714z m470.162286 0a33.792 33.792 0 0 0-33.938286 33.645714c0 18.505143 15.213714 33.499429 33.938286 33.499428a33.792 33.792 0 0 0 34.011428-33.572571 33.792 33.792 0 0 0-34.011428-33.645714z m-367.908572-201.508572H174.665143a33.645714 33.645714 0 0 0-6.070857 66.56l6.070857 0.585143h204.507428a33.645714 33.645714 0 1 0 0-67.145143z m470.162286 0H644.827429a33.645714 33.645714 0 0 0-5.997715 66.56l5.997715 0.585143h204.507428a33.645714 33.645714 0 0 0 0-67.145143zM379.172571 274.651429H174.665143a33.645714 33.645714 0 0 0-6.070857 66.633142l6.070857 0.512h204.507428a33.645714 33.645714 0 0 0 0-67.145142z m470.162286 0H644.827429a33.645714 33.645714 0 0 0-5.997715 66.633142l5.997715 0.512h204.507428a33.645714 33.645714 0 0 0 0-67.145142z" p-id="21087" fill="#dbdbdb"></path></svg>