<?xml version="1.0" standalone="no"?><!DOCTYPE svg PUBLIC "-//W3C//DTD SVG 1.1//EN" "http://www.w3.org/Graphics/SVG/1.1/DTD/svg11.dtd"><svg t="1642147967497" class="icon" viewBox="0 0 1024 1024" version="1.1" xmlns="http://www.w3.org/2000/svg" p-id="9024" xmlns:xlink="http://www.w3.org/1999/xlink" width="500" height="500"><defs><style type="text/css"></style></defs><path d="M470.6 470.8H184.4c-46.1 0-83.7-37.5-83.7-83.7V100.9h286.2c46.1 0 83.7 37.5 83.7 83.7v286.2zM139.3 139.6v247.5c0 24.8 20.2 45.1 45.1 45.1H432V184.6c0-24.8-20.2-45.1-45.1-45.1H139.3zM844.1 462.6H560V181.7c0-45.5 37-82.6 82.6-82.6h284.1V380c0 45.5-37.1 82.6-82.6 82.6z m-245.9-38.1h245.9c24.5 0 44.5-19.9 44.5-44.5V137.2h-246c-24.5 0-44.5 19.9-44.5 44.5v242.8zM383.8 926.5H99.7V645.6c0-45.5 37-82.6 82.6-82.6h284.1v280.9c0 45.5-37.1 82.6-82.6 82.6z m-245.9-38.2h245.9c24.5 0 44.5-19.9 44.5-44.5V601.1h-246c-24.5 0-44.5 19.9-44.5 44.5v242.7zM926.1 926.5h-284c-45.5 0-82.6-37-82.6-82.6V563h284.1c45.5 0 82.6 37 82.6 82.6v280.9zM597.6 601.1v242.8c0 24.5 19.9 44.5 44.5 44.5H888V645.6c0-24.5-19.9-44.5-44.5-44.5H597.6z" fill="#dbdbdb" p-id="9025"></path></svg>